<svg width="180" height="97" viewBox="0 0 180 97" fill="none" xmlns="http://www.w3.org/2000/svg">
<g clip-path="url(#clip0_10099_6628)">
<path d="M29.8939 30.8939C27.9413 28.9413 24.7639 28.9323 22.9227 30.9903C16.1707 38.5375 10.7326 47.1795 6.84814 56.5574C2.96368 65.9354 0.698205 75.8915 0.135918 86.0026C-0.0174101 88.7598 2.23565 91.0001 4.99707 91.0001L15.2042 91.0001C17.9657 91.0001 20.1856 88.7587 20.3833 86.0043C20.9183 78.5487 22.6484 71.2162 25.5171 64.2904C28.3859 57.3646 32.3474 50.9564 37.241 45.3061C39.0489 43.2187 39.0641 40.0641 37.1114 38.1114L29.8939 30.8939Z" fill="#991B1B"/>
<path d="M175.006 91.003C177.768 91.003 180.021 88.7627 179.867 86.0055C178.991 70.239 173.978 54.9483 165.294 41.6896C155.695 27.034 142.027 15.4985 125.968 8.49788C109.908 1.49729 92.1538 -0.664015 74.8834 2.27906C59.2593 4.9416 44.6453 11.6771 32.498 21.7663C30.3737 23.5307 30.266 26.7062 32.1455 28.7292L39.0931 36.2071C40.9726 38.2301 44.1258 38.3308 46.2781 36.6008C55.5226 29.1707 66.5322 24.2007 78.278 22.1991C91.6709 19.9168 105.439 21.5928 117.893 27.0217C130.347 32.4505 140.946 41.3961 148.39 52.7613C154.918 62.7288 158.771 74.1773 159.62 86.0072C159.818 88.7616 162.037 91.003 164.799 91.003H175.006Z" fill="#E2E8F0"/>
</g>
<defs>
<clipPath id="clip0_10099_6628">
<rect width="180" height="97" fill="white"/>
</clipPath>
</defs>
</svg>
