<svg width="180" height="97" viewBox="0 0 180 97" fill="none" xmlns="http://www.w3.org/2000/svg">
<g clip-path="url(#clip0_10099_6634)">
<path d="M150.106 30.8939C152.059 28.9413 155.236 28.9323 157.077 30.9903C163.829 38.5375 169.267 47.1795 173.152 56.5574C177.036 65.9354 179.302 75.8915 179.864 86.0026C180.017 88.7598 177.764 91.0001 175.003 91.0001L164.796 91.0001C162.034 91.0001 159.814 88.7587 159.617 86.0043C159.082 78.5487 157.352 71.2162 154.483 64.2904C151.614 57.3646 147.653 50.9564 142.759 45.3061C140.951 43.2187 140.936 40.0641 142.889 38.1114L150.106 30.8939Z" fill="#1E40AF"/>
<path d="M4.99391 91.003C2.2325 91.003 -0.0205688 88.7627 0.132736 86.0055C1.0094 70.239 6.02193 54.9483 14.706 41.6896C24.305 27.034 37.9726 15.4985 54.0324 8.49788C70.0923 1.49729 87.8462 -0.664015 105.117 2.27906C120.741 4.9416 135.355 11.6771 147.502 21.7663C149.626 23.5307 149.734 26.7062 147.854 28.7292L140.907 36.2071C139.027 38.2301 135.874 38.3308 133.722 36.6008C124.477 29.1707 113.468 24.2007 101.722 22.1991C88.3291 19.9168 74.5612 21.5928 62.1071 27.0217C49.6529 32.4505 39.0539 41.3961 31.61 52.7613C25.0816 62.7288 21.2289 74.1773 20.3801 86.0072C20.1824 88.7616 17.9625 91.003 15.2011 91.003H4.99391Z" fill="#E2E8F0"/>
</g>
<defs>
<clipPath id="clip0_10099_6634">
<rect width="180" height="97" fill="white" transform="matrix(-1 0 0 1 180 0)"/>
</clipPath>
</defs>
</svg>
