<svg width="12" height="15" viewBox="0 0 12 15" fill="none" xmlns="http://www.w3.org/2000/svg">
<path d="M3.66683 8.66667C4.10886 8.66667 4.53278 8.49107 4.84534 8.17851C5.1579 7.86595 5.3335 7.44203 5.3335 7C5.3335 6.08 5.00016 5.66667 4.66683 5C3.95216 3.57133 4.5175 2.29733 6.00016 1C6.3335 2.66667 7.3335 4.26667 8.66683 5.33333C10.0002 6.4 10.6668 7.66667 10.6668 9C10.6668 9.61284 10.5461 10.2197 10.3116 10.7859C10.0771 11.352 9.73333 11.8665 9.29999 12.2998C8.86665 12.7332 8.35221 13.0769 7.78602 13.3114C7.21983 13.546 6.613 13.6667 6.00016 13.6667C5.38733 13.6667 4.78049 13.546 4.21431 13.3114C3.64812 13.0769 3.13367 12.7332 2.70033 12.2998C2.26699 11.8665 1.92325 11.352 1.68872 10.7859C1.4542 10.2197 1.3335 9.61284 1.3335 9C1.3335 8.23133 1.62216 7.47067 2.00016 7C2.00016 7.44203 2.17576 7.86595 2.48832 8.17851C2.80088 8.49107 3.2248 8.66667 3.66683 8.66667Z" stroke="#3F3F46" stroke-width="1.5" stroke-linecap="round" stroke-linejoin="round"/>
</svg>
