<svg width="180" height="97" viewBox="0 0 180 97" fill="none" xmlns="http://www.w3.org/2000/svg">
<g clip-path="url(#clip0_10099_6647)">
<path d="M150.106 30.8939C152.059 28.9413 155.236 28.9323 157.077 30.9903C163.829 38.5375 169.267 47.1795 173.152 56.5574C177.036 65.9354 179.302 75.8915 179.864 86.0026C180.017 88.7598 177.764 91.0001 175.003 91.0001L164.796 91.0001C162.034 91.0001 159.814 88.7587 159.617 86.0043C159.082 78.5487 157.352 71.2162 154.483 64.2904C151.614 57.3646 147.653 50.9564 142.759 45.3061C140.951 43.2187 140.936 40.0641 142.889 38.1114L150.106 30.8939Z" fill="#E2E8F0"/>
<path d="M92.5523 6.12215C92.7003 3.3647 95.0586 1.23496 97.8036 1.53578C115.884 3.51718 132.945 10.9334 146.728 22.8027C148.82 24.6047 148.871 27.7819 146.956 29.7711L139.876 37.1239C137.961 39.1131 134.806 39.1573 132.685 37.3892C122.438 28.8475 109.953 23.4202 96.7166 21.7539C93.9768 21.409 91.8573 19.0721 92.0053 16.3147L92.5523 6.12215Z" fill="#FCA5A5"/>
<path d="M4.99391 91.003C2.2325 91.003 -0.0205688 88.7627 0.132767 86.0055C0.695053 75.8944 2.96053 65.9383 6.84499 56.5604C11.3681 45.6407 17.9976 35.7188 26.3552 27.3613C34.7128 19.0037 44.6346 12.3741 55.5543 7.85107C64.9322 3.96661 74.8884 1.70114 84.9994 1.13885C87.7566 0.98552 89.997 3.23858 89.997 6V16.2072C89.997 18.9686 87.7555 21.1885 85.0012 21.3862C77.5455 21.9212 70.213 23.6513 63.2872 26.5201C54.8192 30.0276 47.125 35.1688 40.6438 41.6499C34.1627 48.1311 29.0215 55.8253 25.514 64.2933C22.6452 71.2191 20.9151 78.5516 20.3801 86.0073C20.1824 88.7616 17.9625 91.003 15.2011 91.003H4.99391Z" fill="#E2E8F0"/>
</g>
<defs>
<clipPath id="clip0_10099_6647">
<rect width="180" height="97" fill="white" transform="matrix(-1 0 0 1 180 0)"/>
</clipPath>
</defs>
</svg>
