<svg width="180" height="97" viewBox="0 0 180 97" fill="none" xmlns="http://www.w3.org/2000/svg">
<g clip-path="url(#clip0_10099_6647)">
<path d="M29.8939 30.8939C27.9413 28.9413 24.7639 28.9323 22.9227 30.9903C16.1707 38.5375 10.7326 47.1795 6.84814 56.5574C2.96368 65.9354 0.698205 75.8915 0.135918 86.0026C-0.0174101 88.7598 2.23565 91.0001 4.99707 91.0001L15.2042 91.0001C17.9657 91.0001 20.1856 88.7587 20.3833 86.0043C20.9183 78.5487 22.6484 71.2162 25.5171 64.2904C28.3859 57.3646 32.3474 50.9564 37.241 45.3061C39.0489 43.2187 39.0641 40.0641 37.1114 38.1114L29.8939 30.8939Z" fill="#E2E8F0"/>
<path d="M87.4477 6.12215C87.2997 3.3647 84.9414 1.23496 82.1964 1.53578C64.1157 3.51718 47.0549 10.9334 33.2725 22.8027C31.18 24.6047 31.1286 27.7819 33.044 29.7711L40.1238 37.1239C42.0391 39.1131 45.1937 39.1573 47.3148 37.3892C57.5621 28.8475 70.0474 23.4202 83.2834 21.7539C86.0232 21.409 88.1427 19.0721 87.9947 16.3147L87.4477 6.12215Z" fill="#FCA5A5"/>
<path d="M175.006 91.003C177.768 91.003 180.021 88.7627 179.867 86.0055C179.305 75.8944 177.039 65.9383 173.155 56.5604C168.632 45.6407 162.002 35.7188 153.645 27.3613C145.287 19.0037 135.365 12.3741 124.446 7.85107C115.068 3.96661 105.112 1.70114 95.0006 1.13885C92.2434 0.98552 90.003 3.23858 90.003 6V16.2072C90.003 18.9686 92.2445 21.1885 94.9988 21.3862C102.454 21.9212 109.787 23.6513 116.713 26.5201C125.181 30.0276 132.875 35.1688 139.356 41.6499C145.837 48.1311 150.978 55.8253 154.486 64.2933C157.355 71.2191 159.085 78.5516 159.62 86.0073C159.818 88.7616 162.037 91.003 164.799 91.003H175.006Z" fill="#E2E8F0"/>
</g>
<defs>
<clipPath id="clip0_10099_6647">
<rect width="180" height="97" fill="white"/>
</clipPath>
</defs>
</svg>
