<svg width="16" height="16" viewBox="0 0 16 16" fill="none" xmlns="http://www.w3.org/2000/svg">
<path d="M6.06657 5.99995C6.22656 5.55904 6.53642 5.18838 6.94199 4.95277C7.34756 4.71716 7.82304 4.63159 8.28531 4.71102C8.74758 4.79044 9.16722 5.02982 9.47089 5.38729C9.77456 5.74476 9.94293 6.19759 9.94657 6.66662C9.94657 7.99995 7.94657 8.66662 7.94657 8.66662M7.99984 11.3333H8.0065M13.3332 8.66664C13.3332 12 10.9998 13.6666 8.2265 14.6333C8.08128 14.6825 7.92353 14.6802 7.77984 14.6266C4.99984 13.6666 2.6665 12 2.6665 8.66664V3.99997C2.6665 3.82316 2.73674 3.65359 2.86177 3.52857C2.98679 3.40355 3.15636 3.33331 3.33317 3.33331C4.6665 3.33331 6.33317 2.53331 7.49317 1.51997C7.63441 1.39931 7.81407 1.33301 7.99984 1.33301C8.1856 1.33301 8.36527 1.39931 8.5065 1.51997C9.67317 2.53997 11.3332 3.33331 12.6665 3.33331C12.8433 3.33331 13.0129 3.40355 13.1379 3.52857C13.2629 3.65359 13.3332 3.82316 13.3332 3.99997V8.66664Z" stroke="#18181B" stroke-width="1.33333" stroke-linecap="round" stroke-linejoin="round"/>
</svg>
