<svg width="16" height="16" viewBox="0 0 16 16" fill="none" xmlns="http://www.w3.org/2000/svg">
<path d="M6.7101 8.32893L2.5901 9.2076C2.43018 9.2423 2.26302 9.21266 2.12479 9.12508C1.98656 9.0375 1.88836 8.89902 1.85143 8.7396L1.49343 7.30626C1.45134 7.13357 1.47524 6.95138 1.56046 6.79539C1.64567 6.63939 1.78605 6.52083 1.9541 6.46293L10.9568 3.50293M9.0402 7.83166L11.9282 7.21566M10.6668 14.0004L8.59684 9.86035M4.10563 5.7557L4.8483 8.72636M5.3335 14.0004L7.4035 9.86035M10.9901 3.9604C10.9044 3.61739 10.9585 3.25439 11.1404 2.95122C11.3223 2.64805 11.6171 2.42954 11.9601 2.34374L12.6868 2.1624C12.8582 2.11964 13.0396 2.14667 13.1911 2.23754C13.3426 2.32842 13.4518 2.47571 13.4948 2.64707L14.5048 6.68707C14.5478 6.85858 14.5208 7.04012 14.4299 7.19178C14.339 7.34343 14.1916 7.45277 14.0201 7.49574L13.2935 7.67707C12.9504 7.76277 12.5874 7.70872 12.2843 7.52682C11.9811 7.34492 11.7626 7.05005 11.6768 6.70707L10.9901 3.9604ZM9.3335 8.66699C9.3335 9.40337 8.73654 10.0003 8.00016 10.0003C7.26378 10.0003 6.66683 9.40337 6.66683 8.66699C6.66683 7.93061 7.26378 7.33366 8.00016 7.33366C8.73654 7.33366 9.3335 7.93061 9.3335 8.66699Z" stroke="#18181B" stroke-width="1.5" stroke-linecap="round" stroke-linejoin="round"/>
</svg>
