<svg width="180" height="97" viewBox="0 0 180 97" fill="none" xmlns="http://www.w3.org/2000/svg">
<g clip-path="url(#clip0_10099_6640)">
<path d="M55.6651 13.2401C54.5497 10.714 51.5901 9.55783 49.1298 10.8118C35.1579 17.9328 23.2611 28.5967 14.6523 41.7735C6.04355 54.9504 1.05693 70.1288 0.14829 85.7844C-0.0117117 88.5412 2.23591 90.7871 4.99732 90.7938L15.2045 90.8186C17.9659 90.8253 20.1912 88.5892 20.3956 85.8353C21.2669 74.0916 25.0987 62.7296 31.5691 52.8257C38.0396 42.9218 46.9053 34.8486 57.3098 29.3332C59.7496 28.0398 60.9034 25.1036 59.788 22.5775L55.6651 13.2401Z" fill="#E2E8F0"/>
<path d="M120.914 11.8193C121.918 9.24696 120.65 6.33328 118.025 5.47343C99.5211 -0.589855 79.5421 -0.486966 61.1013 5.76658C58.4861 6.65341 57.2481 9.57999 58.2787 12.1419L62.0881 21.6115C63.1187 24.1734 66.0268 25.3964 68.6559 24.5517C82.3023 20.1674 96.9738 20.0918 110.665 24.3354C113.302 25.1529 116.198 23.9001 117.202 21.3277L120.914 11.8193Z" fill="#475569"/>
<path d="M175.006 91.003C177.768 91.003 180.021 88.7627 179.867 86.0055C178.99 70.2314 173.973 54.9336 165.282 41.6707C156.59 28.4078 144.566 17.702 130.453 10.6018C127.986 9.36077 125.033 10.5324 123.931 13.0643L119.856 22.4232C118.754 24.9551 119.923 27.8852 122.37 29.1658C132.883 34.6685 141.846 42.7758 148.38 52.7466C154.915 62.7175 158.771 74.1714 159.62 86.0072C159.818 88.7616 162.037 91.003 164.799 91.003H175.006Z" fill="#E2E8F0"/>
</g>
<defs>
<clipPath id="clip0_10099_6640">
<rect width="180" height="97" fill="white"/>
</clipPath>
</defs>
</svg>
