<svg width="40" height="40" viewBox="0 0 40 40" fill="none" xmlns="http://www.w3.org/2000/svg">
<path d="M0 6C0 2.68629 2.68629 0 6 0H34C37.3137 0 40 2.68629 40 6V34C40 37.3137 37.3137 40 34 40H6C2.68629 40 0 37.3137 0 34V6Z" fill="#F4F4F5"/>
<path d="M14 16.0007H26M24.6667 16.0007V25.334C24.6667 26.0007 24 26.6673 23.3333 26.6673H16.6667C16 26.6673 15.3333 26.0007 15.3333 25.334V16.0007M17.3333 16.0007V14.6673C17.3333 14.0007 18 13.334 18.6667 13.334H21.3333C22 13.334 22.6667 14.0007 22.6667 14.6673V16.0007M18.6667 19.334V23.334M21.3333 19.334V23.334" stroke="#18181B" stroke-width="1.33" stroke-linecap="round" stroke-linejoin="round"/>
</svg>
