<svg width="40" height="40" viewBox="0 0 40 40" fill="none" xmlns="http://www.w3.org/2000/svg">
<path d="M0 6C0 2.68629 2.68629 0 6 0H34C37.3137 0 40 2.68629 40 6V34C40 37.3137 37.3137 40 34 40H6C2.68629 40 0 37.3137 0 34V6Z" fill="#18181B"/>
<path d="M17.7267 21.0073L22.2801 23.6607M22.2734 16.3407L17.7267 18.994M26 15.334C26 16.4386 25.1046 17.334 24 17.334C22.8954 17.334 22 16.4386 22 15.334C22 14.2294 22.8954 13.334 24 13.334C25.1046 13.334 26 14.2294 26 15.334ZM18 20.0007C18 21.1052 17.1046 22.0007 16 22.0007C14.8954 22.0007 14 21.1052 14 20.0007C14 18.8961 14.8954 18.0007 16 18.0007C17.1046 18.0007 18 18.8961 18 20.0007ZM26 24.6673C26 25.7719 25.1046 26.6673 24 26.6673C22.8954 26.6673 22 25.7719 22 24.6673C22 23.5627 22.8954 22.6673 24 22.6673C25.1046 22.6673 26 23.5627 26 24.6673Z" stroke="#FAFAFA" stroke-width="1.33" stroke-linecap="round" stroke-linejoin="round"/>
</svg>
