<svg width="40" height="40" viewBox="0 0 40 40" fill="none" xmlns="http://www.w3.org/2000/svg">
<path d="M24.6668 18.6663V19.9997C24.6668 21.2374 24.1752 22.4243 23.3 23.2995C22.4248 24.1747 21.2378 24.6663 20.0002 24.6663M20.0002 24.6663C18.7625 24.6663 17.5755 24.1747 16.7003 23.2995C15.8252 22.4243 15.3335 21.2374 15.3335 19.9997V18.6663M20.0002 24.6663V26.6663M20.0002 13.333C19.4697 13.333 18.961 13.5437 18.5859 13.9188C18.2109 14.2939 18.0002 14.8026 18.0002 15.333V19.9997C18.0002 20.5301 18.2109 21.0388 18.5859 21.4139C18.961 21.789 19.4697 21.9997 20.0002 21.9997C20.5306 21.9997 21.0393 21.789 21.4144 21.4139C21.7894 21.0388 22.0002 20.5301 22.0002 19.9997V15.333C22.0002 14.8026 21.7894 14.2939 21.4144 13.9188C21.0393 13.5437 20.5306 13.333 20.0002 13.333Z" stroke="#18181B" stroke-width="1.33" stroke-linecap="round" stroke-linejoin="round"/>
</svg>
